 Encoded By .......:UnKnOwN                                                    │
│ Runtime ..........:1:20                                                      │
│ IMDb URL .........:http://www.imdb.com/title/tt1704147/                      │
│ Language .........:English                                                   │
│ File Size ........:698mb                                                     │
│ Release Date ......... 2011                                                  │
│ Source       ......... A bum on the street(:                                 │
│ File Type    ......... Single AVI                                            │
│ PS3 Compatible ....... Go For It                                             │
│ Genre        ......... Thriller/Horror                                       │
│                                                                              │
│                                                                              │
│ Video                                                                        │
│  ID                               : 0                                        │
│  Format                           : MPEG-4 Visual                            │
│  Format profile                   : Advanced Simple@L5                       │
│  Format settings, BVOP            : Yes                                      │
│  Format settings, QPel            : No                                       │
│  Format settings, GMC             : No warppoints                            │
│  Format settings, Matrix          : Custom                                   │
│  Codec ID                         : XVID                                     │
│  Codec ID/Hint                    : XviD                                     │
│  Duration                         : 1h 20mn                                  │
│  Bit rate                         : 1280Kbps                                 │
│  Width                            : 680ixels                                 │
│  Height                           : 328pixels                                │
│  Display aspect ratio             : 2:3 5                                    │
│  Frame rate                       : 29.997fps                                │
│  Color space                      : YUV                                      │
│  Chroma subsampling               : 4:2:0                                    │
│  Bit depth                        : 8 bits                                   │
│  Scan type                        : Progressive                              │
│  Bits/(Pixel*Frame)               : 0.234                                    │
│  Stream size                      : 892 MiB (86%)                            │
│  Writing library                  : XviD 1.2.1 (UTC 2008-12-04)              │
│                                                                              │
│                                                                              │
│ Audio                                                                        │
│ ID                               : 1                                         │
│ Format                           : MP3                                       │
│ Format/Info                      : MPEG                                      │
│ Mode extension                   : CM (complete main)                        │
│ Codec ID                         : 2000                                      │
│ Duration                         : 1h 20mn                                   │
│ Bit rate mode                    : Constant                                  │
│ Bit rate                         : 128kbps                                   │
│ Channel(s)                       : 2channels                                 │
│ Channel positions                : Front: L R                                │
│ Sampling rate                    : 48.0 KHz                                  │
│ Bit depth                        : 16 bits                                   │
│ Stream size                      : 302 MiB                                   │
│ Alignment                        : Aligned on interleaves                    │
│ Interleave, duration             : 42 ms (1.00 video frame)                  │
│ Interleave, preload duration     : 512 ms                                    │
│                                                                              │
│                                                                              │
│                                                                              │
│                                                                              │
│                                                                              │
│                                                                              │
│                                                                              │
│                                 SYSPNOSIS                                    │
│   An unknown man makes his way into a quiet neighborhood bringing nothing    │
│                 but torture and pain along side him.        

     |                       |               
,---.|---.,---.,---.,---.,---|.   .,-.-.,---.
`---.|   |,---||    |---'|   ||   || | ||   |
`---'`   '`---^`    `---'`---'`---'` ' '|---'.org
Music,Appz,Xbox360,Tv,Movies,Ps3,Games..|     
